<?xml version="1.0" standalone="no"?>
<!DOCTYPE svg PUBLIC "-//W3C//DTD SVG 1.1//EN"
  "http://www.w3.org/Graphics/SVG/1.1/DTD/svg11.dtd">
<svg width="316.00300216674805mm" height="302.03999328613276mm" viewBox="-45.29999923706055 -166.64399719238278 316.00300216674805 302.03999328613276" xmlns="http://www.w3.org/2000/svg" version="1.1">
	<title>svgOutput</title>
	<desc>made with tinkercad</desc>
<path d="M 269.70001220703125 88.3929977416992 L 266.7030029296875 88.3929977416992 L 266.70001220703125 88.3929977416992 L 266.697998046875 88.3929977416992 L 262.1440124511719 88.3929977416992 L 250.3881378173828 88.3929977416992 L 241.6846160888672 88.3929977416992 L 239.64599609375 88.3929977416992 L 238.16000366210938 88.53500366210936 L 237.49661254882812 88.7376251220703 L 236.77703857421875 88.95740509033202 L 236.76199340820312 88.96199798583983 L 235.81199645996094 89.53399658203124 L 235.6529998779297 89.62899780273436 L 234.9488067626953 90.45880889892577 L 234.9409942626953 90.46800231933592 L 234.7010040283203 91.37899780273436 L 234.7010040283203 91.3980026245117 L 234.45799255371094 92.31900024414061 L 234.45126342773438 92.32693481445311 L 233.7469940185547 93.15699768066405 L 232.63900756835938 93.82199859619139 L 231.9038848876953 94.04685211181639 L 231.2429962158203 94.24900054931639 L 229.7270050048828 94.3929977416992 L 227.6795654296875 94.3929977416992 L 218.9808807373047 94.3929977416992 L 199.67799377441406 94.3929977416992 L 196.60800170898438 94.87907409667967 L 193.52000427246094 95.3679962158203 L 187.93600463867188 98.21299743652341 L 183.99993896484375 102.149055480957 L 183.5050048828125 102.64399719238278 L 180.66000366210938 108.22899627685544 L 179.68499755859375 114.38600158691403 L 179.68499755859375 129.40600585937497 L 179.44200134277344 130.94099426269528 L 179.37527465820312 131.0720062255859 L 178.7310028076172 132.33700561523435 L 177.6230010986328 133.44500732421872 L 176.2270050048828 134.15600585937497 L 174.71099853515625 134.39599609374997 L 140.6750030517578 134.39599609374997 L 139.16000366210938 134.15600585937497 L 137.76400756835938 133.44500732421872 L 136.656005859375 132.33700561523435 L 136.01171875 131.0720062255859 L 135.94500732421875 130.94099426269528 L 135.70199584960938 129.40600585937497 L 135.70199584960938 114.38500213623044 L 134.7270050048828 108.22799682617185 L 133.05271911621094 104.94182586669919 L 131.8820037841797 102.64399719238278 L 131.07200622558594 101.83399963378903 L 127.45462799072266 98.21662902832028 L 127.45099639892578 98.21299743652341 L 122.06999969482422 95.4710006713867 L 121.86799621582031 95.3679962158203 L 115.71700286865234 94.3929977416992 L 111.68299865722656 94.3929977416992 L 105.53218841552734 95.3679733276367 L 105.53199768066406 95.3679962158203 L 105.33000183105469 95.4710006713867 L 99.9489974975586 98.21299743652341 L 96.012939453125 102.149055480957 L 95.51799774169922 102.64399719238278 L 92.6729965209961 108.22799682617185 L 91.697998046875 114.38500213623044 L 91.697998046875 129.40600585937497 L 91.45500183105469 130.94099426269528 L 91.3882827758789 131.0720062255859 L 90.74400329589844 132.33700561523435 L 89.63600158691406 133.44500732421872 L 88.23999786376953 134.15600585937497 L 86.7249984741211 134.39599609374997 L 50.68899917602539 134.39599609374997 L 49.17300033569336 134.15600585937497 L 47.777000427246094 133.44500732421872 L 46.66899871826172 132.33700561523435 L 46.02471923828125 131.0720062255859 L 45.95800018310547 130.94099426269528 L 45.71500015258789 129.40600585937497 L 45.71500015258789 114.38600158691403 L 44.7400016784668 108.22899627685544 L 41.89500045776367 102.64399719238278 L 37.4640007019043 98.21299743652341 L 31.8799991607666 95.3679962158203 L 25.722000122070312 94.3929977416992 L 0 94.3929977416992 L -4.327000141143799 94.3929977416992 L -5.8429999351501465 94.24900054931639 L -7.238999843597412 93.82199859619139 L -8.347000122070312 93.15699768066405 L -9.057999610900879 92.31900024414061 L -9.300999641418457 91.3980026245117 L -9.300999641418457 91.37899780273436 L -9.541000366210938 90.46800231933592 L -10.253000259399414 89.62899780273436 L -11.362000465393066 88.96199798583983 L -12.760000228881836 88.53500366210936 L -14.246000289916992 88.3929977416992 L -34.297000885009766 88.3929977416992 L -34.29999923706055 88.3929977416992 L -41.29800033569336 88.3929977416992 L -41.29800033569336 85.80795288085936 L -41.29800033569336 79.81845855712889 L -41.29800033569336 70.9572067260742 L -41.29800033569336 68.19300079345702 L -44.297000885009766 68.19300079345702 L -44.29999923706055 68.19300079345702 L -44.29999923706055 65.53600311279295 L -44.29999923706055 48.39799880981444 L -44.297000885009766 48.39799880981444 L -41.29800033569336 48.39799880981444 L -41.29800033569336 28.191999435424798 L -44.297000885009766 28.191999435424798 L -44.29999923706055 28.191999435424798 L -44.29999923706055 8.397000312805174 L -44.297000885009766 8.397000312805174 L -41.29800033569336 8.397000312805174 L -41.29800033569336 1.1102230246251565e-16 L -41.29800033569336 -11.807999610900877 L -44.297000885009766 -11.807999610900877 L -44.29999923706055 -11.807999610900877 L -44.29999923706055 -31.604000091552727 L -44.297000885009766 -31.604000091552727 L -41.29800033569336 -31.604000091552727 L -41.29800033569336 -51.80899810791014 L -44.297000885009766 -51.80899810791014 L -44.29999923706055 -51.80899810791014 L -44.29999923706055 -71.60500335693358 L -44.297000885009766 -71.60500335693358 L -41.29800033569336 -71.60500335693358 L -41.29800033569336 -71.60700225830077 L -41.29800033569336 -74.1923370361328 L -41.29800033569336 -80.18245697021483 L -41.29800033569336 -89.04459381103514 L -41.29800033569336 -91.80699920654295 L -44.297000885009766 -91.80699920654295 L -44.297000885009766 -91.80999755859374 L -44.29999923706055 -91.80999755859374 L -44.29999923706055 -105.60399627685544 L -44.297000885009766 -105.60399627685544 L -44.297000885009766 -111.60199737548825 L -41.29499816894531 -111.60199737548825 L -41.29499816894531 -131.0720062255859 L -41.29499816894531 -131.80799865722653 L -44.297000885009766 -131.80799865722653 L -44.297000885009766 -151.60299682617185 L -41.29499816894531 -151.60299682617185 L -41.29499816894531 -162.6450042724609 L -34.297000885009766 -162.6450042724609 L 0 -162.6450042724609 L 55.702999114990234 -162.6450042724609 L 58.70600128173828 -162.6450042724609 L 58.70600128173828 -165.64399719238278 L 169.4709930419922 -165.64399719238278 L 169.69900512695312 -165.64399719238278 L 169.69900512695312 -162.86999511718747 L 262.1440124511719 -162.86999511718747 L 266.7019958496094 -162.86999511718747 L 266.7030029296875 -162.86999511718747 L 269.7030029296875 -162.86999511718747 L 269.7030029296875 -151.60800170898435 L 266.7030029296875 -151.60800170898435 L 266.7019958496094 -151.60800170898435 L 266.70098876953125 -151.60800170898435 L 266.70098876953125 -131.40299987792966 L 266.7030029296875 -131.40299987792966 L 269.7030029296875 -131.40299987792966 L 269.7030029296875 -111.60700225830075 L 269.70001220703125 -111.60700225830075 L 266.7030029296875 -111.60700225830075 L 266.70098876953125 -111.60700225830075 L 266.70098876953125 -105.60399627685544 L 266.70098876953125 -91.40599822998045 L 266.7030029296875 -91.40599822998045 L 269.70001220703125 -91.40599822998045 L 269.70001220703125 -91.40200042724608 L 269.7030029296875 -91.40200042724608 L 269.7030029296875 -71.60700225830077 L 269.70001220703125 -71.60700225830077 L 266.7030029296875 -71.60700225830077 L 266.70098876953125 -71.60700225830077 L 266.70001220703125 -71.60700225830077 L 266.697998046875 -71.60700225830077 L 266.697998046875 -51.40399932861327 L 266.70001220703125 -51.40399932861327 L 266.70098876953125 -51.40399932861327 L 266.7030029296875 -51.40399932861327 L 269.70001220703125 -51.40399932861327 L 269.70001220703125 -31.60899925231933 L 266.7030029296875 -31.60899925231933 L 266.70098876953125 -31.60899925231933 L 266.70001220703125 -31.60899925231933 L 266.697998046875 -31.60899925231933 L 266.697998046875 -25.604000091552727 L 266.697998046875 -11.402999877929686 L 266.70001220703125 -11.402999877929686 L 266.7030029296875 -11.402999877929686 L 269.70001220703125 -11.402999877929686 L 269.70001220703125 8.392000198364256 L 266.7030029296875 8.392000198364256 L 266.70001220703125 8.392000198364256 L 266.697998046875 8.392000198364256 L 266.697998046875 28.597000122070305 L 266.70001220703125 28.597000122070305 L 266.7030029296875 28.597000122070305 L 269.70001220703125 28.597000122070305 L 269.70001220703125 48.39300155639647 L 266.7030029296875 48.39300155639647 L 266.70001220703125 48.39300155639647 L 266.697998046875 48.39300155639647 L 266.697998046875 68.59799957275389 L 266.70001220703125 68.59799957275389 L 266.7030029296875 68.59799957275389 L 269.70001220703125 68.59799957275389 L 269.70001220703125 88.3929977416992 z" fill="none" stroke="rgb(255,0,0)" stroke-width="0.001mm" />
</svg>